<svg width="277" height="52" viewBox="0 0 277 52" fill="none" xmlns="http://www.w3.org/2000/svg">
<path d="M22.1562 3.07853V2.65625H23.7556V3.07853H23.1887V4.77631H22.726V3.07853H22.1562Z" fill="#F5F5F3"/>
<path d="M26.0412 2.65625H26.475V4.77631H26.0122C26.0122 3.74086 26.018 3.41692 26.0759 3.20579C25.9399 3.47477 25.7548 3.72062 25.3615 4.20652C24.9682 3.72062 24.7947 3.47477 24.6414 3.17686C24.7108 3.39379 24.7166 3.70905 24.7166 4.77631H24.248V2.65625H24.6876L25.3615 3.55286L26.0412 2.65625Z" fill="#F5F5F3"/>
<path d="M17.9086 17.4966H5.18905V4.77624H13.6687V13.2565H17.9086V0.536133H0.949219V21.7367H17.9086C32.8347 21.7367 45.2217 32.8142 47.2837 47.1774H36.5627C34.7291 38.1881 27.1922 31.2466 17.9086 30.321V25.9739H13.6687V34.4541H15.7886C25.1417 34.4541 32.748 42.0638 32.748 51.4146H51.8272C51.8272 32.7101 36.6118 17.4908 17.9057 17.4908" fill="#F5F5F3"/>
<path d="M82.2545 25.1289H65.084V17.4961H60.312V36.5795H65.084V28.9467H82.2545V36.5795H87.0264V17.4961H82.2545V25.1289Z" fill="#F5F5F3"/>
<path d="M123.251 17.4961H118.481V36.5795H121.819H123.251H141.378V32.2844H123.251V17.4961Z" fill="#F5F5F3"/>
<path d="M95.1223 17.4961H91.3076V36.5795H95.1223H96.0767H114.204V32.7616H96.0767V28.9467H114.204V25.1289H96.0767V21.3139H114.204V17.4961H96.0767H95.1223Z" fill="#F5F5F3"/>
<path d="M173.875 17.4961H168.368L160.915 30.4073L153.462 17.4961H147.953H145.393V36.5795H150.162V21.3255L158.969 36.5795H159.183H162.647H162.859L172.142 20.4983V36.5795H176.914V17.4961H173.875Z" fill="#F5F5F3"/>
<path d="M268.943 17.7412C271.157 17.7412 272.977 18.4053 274.404 19.7336C275.831 21.0618 276.544 23.1034 276.544 25.8582V37.0007H274.22V26.1165C274.22 23.9028 273.666 22.2917 272.559 21.2832C271.452 20.2501 270.05 19.7336 268.353 19.7336C266.361 19.7336 264.799 20.3608 263.667 21.6152C262.536 22.8697 261.97 24.5669 261.97 26.7068V37.0007H259.609V18.1102H261.675L261.896 22.1687C262.511 20.742 263.421 19.6475 264.627 18.885C265.832 18.1225 267.271 17.7412 268.943 17.7412Z" fill="#F5F5F3"/>
<path d="M245.659 37.3696C243.789 37.3696 242.092 36.9392 240.567 36.0783C239.042 35.2174 237.837 34.0367 236.951 32.5363C236.091 31.0359 235.66 29.3633 235.66 27.5185C235.66 25.6983 236.091 24.0503 236.951 22.5745C237.837 21.0741 239.042 19.8934 240.567 19.0326C242.092 18.1717 243.789 17.7412 245.659 17.7412C247.504 17.7412 249.189 18.1717 250.714 19.0326C252.239 19.8934 253.431 21.0741 254.292 22.5745C255.178 24.0503 255.621 25.6983 255.621 27.5185C255.621 29.3633 255.178 31.0359 254.292 32.5363C253.431 34.0367 252.239 35.2174 250.714 36.0783C249.189 36.9392 247.504 37.3696 245.659 37.3696ZM245.659 35.2666C247.085 35.2666 248.377 34.9222 249.533 34.2335C250.714 33.5448 251.636 32.6101 252.3 31.4294C252.989 30.2488 253.333 28.9451 253.333 27.5185C253.333 26.0919 252.989 24.8005 252.3 23.6445C251.636 22.4638 250.714 21.5291 249.533 20.8404C248.377 20.1517 247.085 19.8074 245.659 19.8074C244.232 19.8074 242.929 20.1517 241.748 20.8404C240.567 21.5291 239.633 22.4638 238.944 23.6445C238.255 24.8005 237.911 26.0919 237.911 27.5185C237.911 28.9451 238.255 30.2488 238.944 31.4294C239.633 32.6101 240.567 33.5448 241.748 34.2335C242.929 34.9222 244.232 35.2666 245.659 35.2666Z" fill="#F5F5F3"/>
<path d="M229.307 18.1098H231.631V37.0003H229.307V18.1098ZM230.488 14.863C230.02 14.863 229.627 14.7154 229.307 14.4203C229.012 14.1005 228.864 13.707 228.864 13.2396C228.864 12.7723 229.012 12.391 229.307 12.0959C229.627 11.7761 230.02 11.6162 230.488 11.6162C230.955 11.6162 231.349 11.7761 231.668 12.0959C231.988 12.391 232.148 12.7723 232.148 13.2396C232.148 13.707 231.988 14.1005 231.668 14.4203C231.349 14.7154 230.955 14.863 230.488 14.863Z" fill="#F5F5F3"/>
<path d="M218.4 37.3691C216.186 37.3691 214.353 36.8771 212.902 35.8932C211.475 34.9094 210.676 33.4704 210.504 31.5765L212.791 31.5027C212.964 32.8063 213.554 33.8025 214.562 34.4912C215.595 35.1553 216.887 35.4874 218.436 35.4874C219.888 35.4874 221.031 35.2045 221.868 34.6388C222.704 34.0731 223.122 33.2737 223.122 32.2406C223.122 31.5273 222.888 30.937 222.421 30.4696C221.978 29.9777 221.413 29.5841 220.724 29.289C220.035 28.9938 219.101 28.674 217.92 28.3297C216.518 27.9115 215.386 27.518 214.526 27.149C213.665 26.7801 212.939 26.2512 212.349 25.5625C211.758 24.8738 211.463 23.976 211.463 22.8691C211.463 21.3441 212.078 20.1266 213.308 19.2165C214.538 18.2818 216.1 17.8145 217.994 17.8145C219.863 17.8145 221.425 18.3064 222.679 19.2903C223.934 20.2496 224.623 21.5163 224.746 23.0905L222.495 23.1643C222.347 22.082 221.855 21.2211 221.019 20.5816C220.207 19.9421 219.187 19.6223 217.957 19.6223C216.727 19.6223 215.718 19.9175 214.931 20.5078C214.144 21.0736 213.751 21.8115 213.751 22.7216C213.751 23.4103 213.972 23.9883 214.415 24.4556C214.858 24.8984 215.411 25.255 216.075 25.5256C216.739 25.7716 217.662 26.0667 218.842 26.4111C220.269 26.8293 221.425 27.2351 222.31 27.6287C223.196 27.9976 223.946 28.551 224.561 29.289C225.176 30.0269 225.483 30.9739 225.483 32.1299C225.483 33.7779 224.844 35.0693 223.565 36.0039C222.286 36.914 220.564 37.3691 218.4 37.3691Z" fill="#F5F5F3"/>
<path d="M204.446 18.1098H206.77V37.0003H204.446V18.1098ZM205.626 14.863C205.159 14.863 204.765 14.7154 204.446 14.4203C204.151 14.1005 204.003 13.707 204.003 13.2396C204.003 12.7723 204.151 12.391 204.446 12.0959C204.765 11.7761 205.159 11.6162 205.626 11.6162C206.094 11.6162 206.487 11.7761 206.807 12.0959C207.127 12.391 207.287 12.7723 207.287 13.2396C207.287 13.707 207.127 14.1005 206.807 14.4203C206.487 14.7154 206.094 14.863 205.626 14.863Z" fill="#F5F5F3"/>
<path d="M201.118 18.1094L193.37 36.9999H190.935L183.04 18.1094H185.548C187.934 23.9389 189.521 27.8744 190.308 29.9159C191.12 31.9575 191.735 33.6424 192.153 34.9706C192.571 33.5932 193.161 31.9083 193.924 29.9159C194.686 27.899 196.26 23.9635 198.646 18.1094H201.118Z" fill="#F5F5F3"/>
</svg>
